mtllib new-1.mtl
v 0.836607 0.041612 0.500557
v 0.830369 0.041612 0.494319
v 0.836607 0.041612 -0.497512
v 0.836607 -0.025231 0.500557
v 0.830369 0.041612 -0.491274
v 0.836607 -0.025231 -0.497512
vn 0.000000 1.000000 0.000000
vn -1.000000 0.000000 0.000000
vn 0.000000 -1.000000 0.000000
vn 1.000000 0.000000 0.000000
vt 1.576275 1.042759
vt 1.626275 1.096813
vt 9.576275 1.042759
vt 9.526275 1.096813
vt 7.047580 1.490825
vt 7.968021 1.522345
vt 7.048181 1.523069
vt 7.967420 1.490101
usemtl material-0
f 2/2/1 1/1/1 3/3/1
f 2/2/1 3/3/1 5/4/1
usemtl material-1
f 3//3 1//3 2//3
f 1//2 3//2 4//2
f 5//3 3//3 2//3
f 6//2 4//2 3//2
usemtl material-3
f 4/5/4 3/6/4 1/7/4
f 3/6/4 4/5/4 6/8/4