mtllib new-0.mtl
v 0.836607 0.041612 0.500557
v 0.830369 0.041612 0.494319
v -0.785254 0.041612 0.500557
v -0.779016 0.041612 0.494319
v 0.836607 -0.025231 0.500557
v 0.708046 -0.025231 0.494319
v -0.785254 -0.025231 0.500557
v 0.830369 -0.025231 0.494319
v -0.626176 -0.025231 0.494319
v -0.779016 -0.025231 0.494319
vn 0.000000 1.000000 0.000000
vn 0.000000 0.000000 -1.000000
vn 0.000000 -1.000000 0.000000
vn 0.000000 0.000000 1.000000
vt 1.576275 1.042759
vt 1.626275 1.096813
vt 1.576275 15.096813
vt 1.626275 15.042759
vt -8.842705 2.044901
vt -8.766699 2.000000
vt -7.842706 2.044901
vt -8.842705 2.000000
vt -7.937674 2.000000
vt -7.842706 2.000000
vt 0.000000 1.000000
vt 1.000000 0.000000
vt 1.000000 1.000000
vt 0.000000 0.000000
usemtl material-0
f 1/1/1 2/2/1 3/3/1
f 4/4/1 3/3/1 2/2/1
f 6/6/2 2/5/2 8/8/2
f 4/7/2 9/9/2 10/10/2
usemtl material-1
f 3//3 2//3 1//3
f 2//3 3//3 4//3
f 1//2 5//2 3//2
f 7//2 3//2 5//2
f 8//4 2//4 6//4
f 10//4 9//4 4//4
usemtl material-2
f 3/11/4 5/12/4 1/13/4
f 5/12/4 3/11/4 7/14/4