mtllib new-8.mtl
v 0.830369 0.041612 0.494319
v 0.836607 0.041612 -0.497512
v -0.779016 0.041612 0.494319
v 0.836607 -0.025231 0.500557
v 0.830369 0.041612 -0.491274
v -0.785254 0.041612 -0.497512
v 0.708046 -0.025231 0.494319
v -0.785254 -0.025231 0.500557
v 0.836607 -0.025231 -0.497512
v -0.779016 0.041612 -0.491274
v 0.830369 -0.025231 -0.491274
v -0.785254 -0.025231 -0.497512
v 0.830369 -0.025231 0.494319
v -0.626176 -0.025231 0.494319
v -0.779016 -0.025231 0.494319
v 0.830369 -0.025231 0.358411
v -0.779016 -0.025231 -0.491274
v -0.779016 -0.025231 0.358411
vn 0.000000 1.000000 0.000000
vn 0.000000 -1.000000 0.000000
vt 9.576275 1.042759
vt 9.526275 1.096813
vt 9.576275 15.096813
vt -8.766699 2.000000
vt 9.526275 15.042759
vt -8.842705 2.000000
vt -7.937674 2.000000
vt -7.838830 1.995810
vt -7.842706 2.000000
vt -8.846581 1.995810
vt -8.846581 2.666247
vt -3.423469 8.123139
vt -2.905091 8.081919
vt -2.870773 8.586316
vt -3.132334 9.092513
vt -3.166652 8.588117
vt -3.685031 8.629337
vt -7.838830 2.666247
vt -8.842705 2.091294
vt -8.842705 2.662057
vt -2.971962 14.759365
vt -2.496462 14.087914
vt -2.453583 14.718145
vt -7.842706 2.091294
vt -7.842706 2.662057
vt 0.520903 0.055476
vt 0.088926 0.760857
vt 0.088926 0.055476
vt 0.520903 0.760857
usemtl material-0
f 5/2/1 2/1/1 10/5/1
f 8/8/2 15/9/2 4/10/2
f 4/10/2 13/6/2 9/11/2
f 6/3/1 10/5/1 2/1/1
f 13/6/2 14/7/2 7/4/2
f 16/12/2 13/13/2 7/14/2
f 7/15/1 13/16/1 16/17/1
f 15/9/2 8/8/2 12/18/2
f 13/6/2 4/10/2 15/9/2
f 9/11/2 13/6/2 16/19/2
f 9/11/2 11/20/2 12/18/2
f 9/11/2 16/19/2 11/20/2
f 13/6/2 15/9/2 14/7/2
f 18/21/2 14/22/2 15/23/2
f 15/23/1 14/22/1 18/21/1
f 15/9/2 12/18/2 18/24/2
f 17/25/2 12/18/2 11/20/2
f 18/24/2 12/18/2 17/25/2
usemtl material-1
f 10//2 2//2 5//2
f 4//1 15//1 8//1
f 9//1 13//1 4//1
f 2//2 10//2 6//2
f 7//1 14//1 13//1
f 12//1 8//1 15//1
f 15//1 4//1 13//1
f 16//1 13//1 9//1
f 12//1 11//1 9//1
f 11//1 16//1 9//1
f 14//1 15//1 13//1
f 18//1 12//1 15//1
f 11//1 12//1 17//1
f 17//1 12//1 18//1
usemtl material-4
f 5/26/1 3/27/1 1/28/1
f 3/27/1 5/26/1 10/29/1
usemtl material-5
f 1/28/2 3/27/2 5/26/2
f 10/29/2 5/26/2 3/27/2