# SSTK version 0.8.0
# 7
mtllib original-7.mtl
o Group6/mesh20/mesh20-geometry#mesh20-geometry
v 0.821073 -0.220862 -0.453781
v 0.821073 -0.221967 -0.498901
v 0.821073 -0.221967 -0.463058
v 0.821073 -0.220862 -0.508178
v 0.826875 -0.221967 -0.463058
v 0.826875 -0.220862 -0.453781
v 0.821073 -0.217622 -0.445137
v 0.826875 -0.221967 -0.498901
v 0.826875 -0.217622 -0.445137
v 0.821073 -0.217622 -0.516823
v 0.826875 -0.220862 -0.508178
v 0.826875 -0.217622 -0.516823
v 0.826875 -0.212467 -0.437713
v 0.821073 -0.212467 -0.437713
v 0.826875 -0.212467 -0.524246
v 0.821073 -0.212467 -0.524246
v 0.821073 -0.205749 -0.432017
v 0.826875 -0.205749 -0.529942
v 0.826875 -0.205749 -0.432017
v 0.821073 -0.205749 -0.529942
v 0.821073 -0.197926 -0.428436
v 0.826875 -0.197926 -0.533523
v 0.826875 -0.197926 -0.428436
v 0.821073 -0.197926 -0.533523
v 0.821073 -0.189530 -0.427215
v 0.826875 -0.189530 -0.534744
v 0.826875 -0.189530 -0.427215
v 0.821073 -0.189530 -0.534744
v 0.826776 -0.067546 -0.427215
v 0.826875 -0.181135 -0.533523
v 0.821073 -0.157093 -0.480980
v 0.826875 -0.068514 -0.427215
v 0.826486 -0.066643 -0.427215
v 0.826875 -0.157093 -0.480980
v 0.821073 -0.072257 -0.427215
v 0.821073 -0.181135 -0.533523
v 0.826776 -0.067546 -0.480980
v 0.826486 -0.066643 -0.480980
v 0.826025 -0.065868 -0.427215
v 0.826875 -0.173312 -0.529942
v 0.821073 -0.064772 -0.427215
v 0.821073 -0.072257 -0.480980
v 0.821073 -0.173312 -0.529942
v 0.826875 -0.068514 -0.480980
v 0.826025 -0.065868 -0.480980
v 0.825424 -0.065273 -0.427215
v 0.826875 -0.166594 -0.524246
v 0.823974 -0.064772 -0.427215
v 0.773696 -0.064772 -0.427215
v 0.776597 -0.072257 -0.480980
v 0.821073 -0.064772 -0.480980
v 0.821073 -0.166594 -0.524246
v 0.824725 -0.064899 -0.427215
v 0.826875 -0.161439 -0.516823
v 0.776597 -0.072257 -0.427215
v 0.823974 -0.064772 -0.480980
v 0.821073 -0.161439 -0.516823
v 0.826875 -0.157093 -0.498901
v 0.825424 -0.065273 -0.480980
v 0.826875 -0.158198 -0.508178
v 0.824725 -0.064899 -0.480980
v 0.776597 -0.189530 -0.427215
v 0.773696 -0.064772 -0.480980
v 0.776597 -0.157093 -0.480980
v 0.821073 -0.158198 -0.508178
v 0.821073 -0.157093 -0.498901
v 0.770796 -0.189530 -0.427215
v 0.772945 -0.064899 -0.427215
v 0.770796 -0.157093 -0.480980
v 0.776597 -0.197926 -0.428436
v 0.776597 -0.181135 -0.533523
v 0.772945 -0.064899 -0.480980
v 0.776597 -0.157093 -0.498901
v 0.772246 -0.065273 -0.427215
v 0.770796 -0.197926 -0.428436
v 0.776597 -0.189530 -0.534744
v 0.776597 -0.173312 -0.529942
v 0.770796 -0.157093 -0.498901
v 0.776597 -0.158198 -0.508178
v 0.772246 -0.065273 -0.480980
v 0.771645 -0.065868 -0.427215
v 0.770796 -0.197926 -0.533523
v 0.776597 -0.205749 -0.432017
v 0.776597 -0.197926 -0.533523
v 0.770796 -0.189530 -0.534744
v 0.770796 -0.181135 -0.533523
v 0.776597 -0.166594 -0.524246
v 0.770796 -0.158198 -0.508178
v 0.776597 -0.161439 -0.516823
v 0.771645 -0.065868 -0.480980
v 0.771184 -0.066643 -0.427215
v 0.770796 -0.205749 -0.529942
v 0.770796 -0.205749 -0.432017
v 0.770796 -0.173312 -0.529942
v 0.770796 -0.161439 -0.516823
v 0.771184 -0.066643 -0.480980
v 0.770894 -0.067546 -0.427215
v 0.776597 -0.212467 -0.437713
v 0.776597 -0.205749 -0.529942
v 0.770796 -0.166594 -0.524246
v 0.770894 -0.067546 -0.480980
v 0.770796 -0.068514 -0.427215
v 0.770796 -0.212467 -0.524246
v 0.770796 -0.212467 -0.437713
v 0.770796 -0.068514 -0.480980
v 0.770796 -0.217622 -0.445137
v 0.776597 -0.212467 -0.524246
v 0.770796 -0.217622 -0.516823
v 0.776597 -0.217622 -0.445137
v 0.776597 -0.217622 -0.516823
v 0.770796 -0.220862 -0.453781
v 0.770796 -0.220862 -0.508178
v 0.776597 -0.220862 -0.508178
v 0.776597 -0.220862 -0.453781
v 0.770796 -0.221967 -0.463058
v 0.770796 -0.221967 -0.498901
v 0.776597 -0.221967 -0.498901
v 0.776597 -0.221967 -0.463058
vn -1 0 0
vn 1 0 0
vn 0 -0.998245480128214 -0.05921115945150384
vn 0 -0.998245480128214 0.05921115945150384
vn 0 0.998245480128214 -0.05921115945150384
vn 0 0.998245480128214 0.05921115945150384
vn 0 -0.9718359453320203 0.23565842942831153
vn 0 0.9718359453320203 -0.23565842942831153
vn 0 -0.9718359453320203 -0.23565842942831153
vn 0 0.9718359453320203 0.23565842942831153
vn 0 -0.8863120658799422 0.4630884600976674
vn 0 0.8863120658799422 -0.4630884600976674
vn 0 -0.7414562912379874 0.6710011685411651
vn 0 0.7414562912379874 -0.6710011685411651
vn 0 -0.8863120658799422 -0.4630884600976674
vn 0 0.8863120658799422 0.4630884600976674
vn 0 -0.7414562912379874 -0.6710011685411651
vn 0 0.7414562912379874 0.6710011685411651
vn 0 -0.5378404476944749 0.8430466492572085
vn 0 0.5378404476944749 -0.8430466492572085
vn 0 -0.5378404476944749 -0.8430466492572085
vn 0 0.5378404476944749 0.8430466492572085
vn 0 -0.2839009739294202 0.9588536056155427
vn 0 0.2839009739294202 -0.9588536056155427
vn 0 -0.2839009739294202 -0.9588536056155427
vn 0 0.2839009739294202 0.9588536056155427
vn 0 -0.07223617044721227 0.9973875554061827
vn 0 0.07223617044721227 -0.9973875554061827
vn 0 0 -1
vn 0 0 1
vn 0.9987123704200288 0.05073067287161852 0
vn -0.9987123704200288 -0.05073067287161852 0
vn 0.9791117428546775 0.203322883621288 0
vn -0.9791117428546775 -0.203322883621288 0
vn 0.9127916262304892 0.408425571045079 0
vn -0.9127916262304892 -0.408425571045079 0
vn 0.7904150521752438 0.6125716654358139 0
vn -0.7904150521752438 -0.6125716654358139 0
vn 0 -1 0
vn 0 1 0
vn 0.5974144901605272 0.8019326199539694 0
vn -0.5974144901605272 -0.8019326199539694 0
vn 0.08427120153102173 0.9964428556583252 0
vn -0.08427120153102173 -0.9964428556583252 0
vn -0.08427120153102173 0.9964428556583252 0
vn 0.08427120153102173 -0.9964428556583252 0
vn 0.3267619148847901 0.9451066876182947 0
vn -0.3267619148847901 -0.9451066876182947 0
vn -0.3267619148847901 0.9451066876182947 0
vn 0.3267619148847901 -0.9451066876182947 0
vn -0.5974144901605272 0.8019326199539694 0
vn 0.5974144901605272 -0.8019326199539694 0
vn -0.7904150521752438 0.6125716654358139 0
vn 0.7904150521752438 -0.6125716654358139 0
vn -0.9127916262304892 0.408425571045079 0
vn 0.9127916262304892 -0.408425571045079 0
vn -0.9791117428546775 0.203322883621288 0
vn 0.9791117428546775 -0.203322883621288 0
vn -0.9987123704200288 0.05073067287161852 0
vn 0.9987123704200288 -0.05073067287161852 0
usemtl material_0_0
f 1//1 2//1 3//1
f 2//1 1//1 4//1
f 3//2 2//2 1//2
f 4//2 1//2 2//2
f 2//3 5//4 3//4
f 3//5 5//5 2//6
f 3//4 6//7 1//7
f 1//8 6//8 3//5
f 4//1 1//1 7//1
f 7//2 1//2 4//2
f 4//9 8//3 2//3
f 2//6 8//6 4//10
f 5//4 2//3 8//3
f 8//6 2//6 5//5
f 6//7 3//4 5//4
f 5//5 3//5 6//8
f 9//11 1//7 6//7
f 6//8 1//8 9//12
f 1//7 9//11 7//11
f 7//12 9//12 1//8
f 4//1 7//1 10//1
f 10//2 7//2 4//2
f 8//3 4//9 11//9
f 11//10 4//10 8//6
f 11//2 5//2 8//2
f 8//1 5//1 11//1
f 5//2 11//2 6//2
f 6//1 11//1 5//1
f 6//2 12//2 9//2
f 9//1 12//1 6//1
f 13//13 7//11 9//11
f 9//12 7//12 13//14
f 10//1 7//1 14//1
f 14//2 7//2 10//2
f 10//15 11//9 4//9
f 4//10 11//10 10//16
f 6//2 11//2 12//2
f 12//1 11//1 6//1
f 9//2 12//2 15//2
f 15//1 12//1 9//1
f 7//11 13//13 14//13
f 14//14 13//14 7//12
f 9//2 15//2 13//2
f 13//1 15//1 9//1
f 10//1 14//1 16//1
f 16//2 14//2 10//2
f 11//9 10//15 12//15
f 12//16 10//16 11//10
f 12//15 16//17 15//17
f 15//18 16//18 12//16
f 13//13 17//19 14//13
f 14//14 17//20 13//14
f 13//2 15//2 18//2
f 18//1 15//1 13//1
f 16//1 14//1 17//1
f 17//2 14//2 16//2
f 16//17 12//15 10//15
f 10//16 12//16 16//18
f 16//17 18//21 15//17
f 15//18 18//22 16//18
f 17//19 13//13 19//19
f 19//20 13//14 17//20
f 13//2 18//2 19//2
f 19//1 18//1 13//1
f 16//1 17//1 20//1
f 20//2 17//2 16//2
f 18//21 16//17 20//21
f 20//22 16//18 18//22
f 19//19 21//23 17//19
f 17//20 21//24 19//20
f 19//2 18//2 22//2
f 22//1 18//1 19//1
f 20//1 17//1 21//1
f 21//2 17//2 20//2
f 20//21 22//25 18//21
f 18//22 22//26 20//22
f 21//23 19//19 23//23
f 23//24 19//20 21//24
f 19//2 22//2 23//2
f 23//1 22//1 19//1
f 20//1 21//1 24//1
f 24//2 21//2 20//2
f 22//25 20//21 24//25
f 24//26 20//22 22//26
f 23//23 25//27 21//23
f 21//24 25//28 23//24
f 23//2 22//2 26//2
f 26//1 22//1 23//1
f 24//1 21//1 25//1
f 25//2 21//2 24//2
f 24//25 26//29 22//25
f 22//26 26//30 24//26
f 25//27 23//23 27//27
f 27//28 23//24 25//28
f 23//2 26//2 27//2
f 27//1 26//1 23//1
f 24//1 25//1 28//1
f 28//2 25//2 24//2
f 26//29 24//25 28//29
f 28//30 24//26 26//30
f 27//27 29//30 25//27
f 25//28 29//29 27//28
f 27//2 26//2 30//2
f 30//1 26//1 27//1
f 28//1 25//1 31//1
f 31//2 25//2 28//2
f 28//29 30//24 26//29
f 26//30 30//23 28//30
f 29//30 27//27 32//30
f 32//29 27//28 29//29
f 25//27 29//30 33//30
f 33//29 29//29 25//28
f 27//2 30//2 34//2
f 34//1 30//1 27//1
f 31//1 25//1 35//1
f 35//2 25//2 31//2
f 28//1 31//1 36//1
f 36//2 31//2 28//2
f 30//24 28//29 36//24
f 36//23 28//30 30//23
f 27//2 34//2 32//31
f 32//32 34//1 27//1
f 32//31 37//33 29//33
f 29//34 37//34 32//32
f 29//33 38//35 33//35
f 33//36 38//36 29//34
f 25//27 33//30 39//30
f 39//29 33//29 25//28
f 34//2 30//2 40//2
f 40//1 30//1 34//1
f 25//27 41//30 35//30
f 35//29 41//29 25//28
f 31//1 35//1 42//1
f 42//2 35//2 31//2
f 36//1 31//1 43//1
f 43//2 31//2 36//2
f 36//24 40//20 30//24
f 30//23 40//19 36//23
f 32//31 34//2 44//31
f 44//32 34//1 32//32
f 37//33 32//31 44//31
f 44//32 32//32 37//34
f 38//35 29//33 37//33
f 37//34 29//34 38//36
f 45//37 33//35 38//35
f 38//36 33//36 45//38
f 33//35 45//37 39//37
f 39//38 45//38 33//36
f 25//27 39//30 46//30
f 46//29 39//29 25//28
f 34//2 40//2 47//2
f 47//1 40//1 34//1
f 25//27 48//30 41//30
f 41//29 48//29 25//28
f 49//30 35//30 41//30
f 41//29 35//29 49//29
f 35//39 50//39 42//39
f 42//40 50//40 35//40
f 51//29 31//29 42//29
f 42//30 31//30 51//30
f 43//1 31//1 52//1
f 52//2 31//2 43//2
f 40//20 36//24 43//20
f 43//19 36//23 40//19
f 31//29 44//29 34//29
f 34//30 44//30 31//30
f 44//29 31//29 37//29
f 37//30 31//30 44//30
f 37//29 31//29 38//29
f 38//30 31//30 37//30
f 38//29 31//29 45//29
f 45//30 31//30 38//30
f 45//37 46//41 39//37
f 39//38 46//42 45//38
f 25//27 46//30 53//30
f 53//29 46//29 25//28
f 43//20 47//14 40//20
f 40//19 47//13 43//19
f 34//2 47//2 54//2
f 54//1 47//1 34//1
f 25//27 53//30 48//30
f 48//29 53//29 25//28
f 48//43 51//40 41//40
f 41//39 51//39 48//44
f 35//30 49//30 55//30
f 55//29 49//29 35//29
f 51//40 49//45 41//40
f 41//39 49//46 51//39
f 50//39 35//39 55//39
f 55//40 35//40 50//40
f 51//29 42//29 50//29
f 50//30 42//30 51//30
f 56//29 31//29 51//29
f 51//30 31//30 56//30
f 52//1 31//1 57//1
f 57//2 31//2 52//2
f 47//14 43//20 52//14
f 52//13 43//19 47//13
f 58//5 31//40 34//40
f 34//39 31//39 58//4
f 45//29 31//29 59//29
f 59//30 31//30 45//30
f 46//41 45//37 59//41
f 59//42 45//38 46//42
f 59//41 53//47 46//41
f 46//42 53//48 59//42
f 47//14 57//12 54//12
f 54//11 57//11 47//13
f 34//2 54//2 60//2
f 60//1 54//1 34//1
f 61//47 48//43 53//47
f 53//48 48//44 61//48
f 51//40 48//43 56//43
f 56//44 48//44 51//39
f 55//30 49//30 62//27
f 62//28 49//29 55//29
f 49//45 51//40 63//45
f 63//46 51//39 49//46
f 55//2 64//2 50//2
f 50//1 64//1 55//1
f 51//29 50//29 63//29
f 63//30 50//30 51//30
f 61//29 31//29 56//29
f 56//30 31//30 61//30
f 57//1 31//1 65//1
f 65//2 31//2 57//2
f 57//12 47//14 52//14
f 52//13 47//13 57//11
f 31//40 58//5 66//5
f 66//4 58//4 31//39
f 34//2 60//2 58//2
f 58//1 60//1 34//1
f 59//29 31//29 61//29
f 61//30 31//30 59//30
f 53//47 59//41 61//47
f 61//48 59//42 53//48
f 65//8 54//12 57//12
f 57//11 54//11 65//7
f 54//12 65//8 60//8
f 60//7 65//7 54//11
f 48//43 61//47 56//43
f 56//44 61//48 48//44
f 62//27 49//30 67//27
f 67//28 49//29 62//28
f 62//2 64//2 55//2
f 55//1 64//1 62//1
f 63//45 68//49 49//45
f 49//46 68//50 63//46
f 69//29 50//29 64//29
f 64//30 50//30 69//30
f 50//29 69//29 63//29
f 63//30 69//30 50//30
f 66//1 65//1 31//1
f 31//2 65//2 66//2
f 60//8 66//5 58//5
f 58//4 66//4 60//7
f 66//5 60//8 65//8
f 65//7 60//7 66//4
f 67//27 49//30 68//30
f 68//29 49//29 67//28
f 67//27 70//23 62//27
f 62//28 70//24 67//28
f 62//2 71//2 64//2
f 64//1 71//1 62//1
f 68//49 63//45 72//49
f 72//50 63//46 68//50
f 73//5 69//40 64//40
f 64//39 69//39 73//4
f 63//29 69//29 72//29
f 72//30 69//30 63//30
f 67//27 68//30 74//30
f 74//29 68//29 67//28
f 70//23 67//27 75//23
f 75//24 67//28 70//24
f 70//2 76//2 62//2
f 62//1 76//1 70//1
f 62//2 76//2 71//2
f 71//1 76//1 62//1
f 64//2 71//2 77//2
f 77//1 71//1 64//1
f 72//49 74//51 68//49
f 68//50 74//52 72//50
f 69//40 73//5 78//5
f 78//4 73//4 69//39
f 64//2 79//2 73//2
f 73//1 79//1 64//1
f 72//29 69//29 80//29
f 80//30 69//30 72//30
f 67//27 74//30 81//30
f 81//29 74//29 67//28
f 82//1 75//1 67//1
f 67//2 75//2 82//2
f 75//23 83//19 70//23
f 70//24 83//20 75//24
f 70//2 84//2 76//2
f 76//1 84//1 70//1
f 85//29 71//24 76//29
f 76//30 71//23 85//30
f 86//24 77//20 71//24
f 71//23 77//19 86//23
f 64//2 77//2 87//2
f 87//1 77//1 64//1
f 74//51 72//49 80//51
f 80//52 72//50 74//52
f 79//8 78//5 73//5
f 73//4 78//4 79//7
f 78//1 88//1 69//1
f 69//2 88//2 78//2
f 64//2 89//2 79//2
f 79//1 89//1 64//1
f 80//29 69//29 90//29
f 90//30 69//30 80//30
f 80//51 81//53 74//51
f 74//52 81//54 80//52
f 67//27 81//30 91//30
f 91//29 81//29 67//28
f 92//1 75//1 82//1
f 82//2 75//2 92//2
f 82//1 67//1 85//1
f 85//2 67//2 82//2
f 83//19 75//23 93//19
f 93//20 75//24 83//20
f 83//2 84//2 70//2
f 70//1 84//1 83//1
f 82//25 76//29 84//25
f 84//26 76//30 82//26
f 71//24 85//29 86//24
f 86//23 85//30 71//23
f 76//29 82//25 85//29
f 85//30 82//26 76//30
f 77//20 86//24 94//20
f 94//19 86//23 77//19
f 94//20 87//14 77//20
f 77//19 87//13 94//19
f 64//2 87//2 89//2
f 89//1 87//1 64//1
f 78//5 79//8 88//8
f 88//7 79//7 78//4
f 95//1 69//1 88//1
f 88//2 69//2 95//2
f 89//12 88//8 79//8
f 79//7 88//7 89//11
f 90//29 69//29 96//29
f 96//30 69//30 90//30
f 81//53 80//51 90//53
f 90//54 80//52 81//54
f 81//53 96//55 91//55
f 91//56 96//56 81//54
f 67//27 91//30 97//30
f 97//29 91//29 67//28
f 92//1 93//1 75//1
f 75//2 93//2 92//2
f 84//25 92//21 82//25
f 82//26 92//22 84//26
f 85//1 67//1 69//1
f 69//2 67//2 85//2
f 93//19 98//13 83//19
f 83//20 98//14 93//20
f 83//2 99//2 84//2
f 84//1 99//1 83//1
f 85//1 69//1 86//1
f 86//2 69//2 85//2
f 86//1 69//1 94//1
f 94//2 69//2 86//2
f 87//14 94//20 100//14
f 100//13 94//19 87//13
f 87//14 95//12 89//12
f 89//11 95//11 87//13
f 100//1 69//1 95//1
f 95//2 69//2 100//2
f 88//8 89//12 95//12
f 95//11 89//11 88//7
f 96//29 69//29 101//29
f 101//30 69//30 96//30
f 96//55 81//53 90//53
f 90//54 81//54 96//56
f 101//57 91//55 96//55
f 96//56 91//56 101//58
f 91//55 101//57 97//57
f 97//58 101//58 91//56
f 67//27 97//30 102//30
f 102//29 97//29 67//28
f 103//1 93//1 92//1
f 92//2 93//2 103//2
f 92//21 84//25 99//21
f 99//22 84//26 92//22
f 69//1 67//1 102//59
f 102//60 67//2 69//2
f 98//13 93//19 104//13
f 104//14 93//20 98//14
f 98//2 99//2 83//2
f 83//1 99//1 98//1
f 94//1 69//1 100//1
f 100//2 69//2 94//2
f 95//12 87//14 100//14
f 100//13 87//13 95//11
f 101//29 69//29 105//29
f 105//30 69//30 101//30
f 105//59 97//57 101//57
f 101//58 97//58 105//60
f 97//57 105//59 102//59
f 102//60 105//60 97//58
f 103//1 104//1 93//1
f 93//2 104//2 103//2
f 99//21 103//17 92//21
f 92//22 103//18 99//22
f 69//1 102//59 105//59
f 105//60 102//60 69//2
f 106//11 98//13 104//13
f 104//14 98//14 106//12
f 98//2 107//2 99//2
f 99//1 107//1 98//1
f 108//1 104//1 103//1
f 103//2 104//2 108//2
f 103//17 99//21 107//17
f 107//18 99//22 103//18
f 98//13 106//11 109//11
f 109//12 106//12 98//14
f 108//1 106//1 104//1
f 104//2 106//2 108//2
f 109//2 107//2 98//2
f 98//1 107//1 109//1
f 103//17 110//15 108//15
f 108//16 110//16 103//18
f 110//15 103//17 107//17
f 107//18 103//18 110//16
f 111//7 109//11 106//11
f 106//12 109//12 111//8
f 112//1 106//1 108//1
f 108//2 106//2 112//2
f 109//2 110//2 107//2
f 107//1 110//1 109//1
f 113//9 108//15 110//15
f 110//16 108//16 113//10
f 109//11 111//7 114//7
f 114//8 111//8 109//12
f 112//1 111//1 106//1
f 106//2 111//2 112//2
f 108//15 113//9 112//9
f 112//10 113//10 108//16
f 114//2 110//2 109//2
f 109//1 110//1 114//1
f 114//2 113//2 110//2
f 110//1 113//1 114//1
f 115//4 114//7 111//7
f 111//8 114//8 115//5
f 116//1 111//1 112//1
f 112//2 111//2 116//2
f 117//3 112//9 113//9
f 113//10 112//10 117//6
f 118//2 113//2 114//2
f 114//1 113//1 118//1
f 114//7 115//4 118//4
f 118//5 115//5 114//8
f 111//1 116//1 115//1
f 115//2 116//2 111//2
f 112//9 117//3 116//3
f 116//6 117//6 112//10
f 113//2 118//2 117//2
f 117//1 118//1 113//1
f 116//3 118//4 115//4
f 115//5 118//5 116//6
f 118//4 116//3 117//3
f 117//6 116//6 118//5
